<svg viewBox="0 0 512 512" fill="none" xmlns="http://www.w3.org/2000/svg">
<path d="M124.803 438.408C123.041 437.971 121.271 437.557 119.517 437.08C109.692 434.378 101.108 429.497 94.0158 422.157C81.7802 409.493 75.1959 394.36 74.6269 376.678C74.4209 370.035 75.1879 363.502 76.7463 357.048C78.5585 349.47 81.3907 342.311 85.0981 335.474C91.0177 324.563 98.7176 315.073 107.825 306.679C114.688 300.353 122.167 294.846 130.18 290.068C137.68 285.591 144.684 280.422 151.379 274.822C159.805 267.761 167.656 260.085 175.439 252.336C182.319 245.485 189.114 238.568 196.287 232.037C201.684 227.107 207.284 222.432 213.331 218.324C220.895 213.192 228.958 209.139 237.964 207.178C244.722 205.703 251.51 205.488 258.348 206.546C266.081 207.727 273.554 209.832 280.72 212.99C291.686 217.834 300.632 225.175 307.748 234.82C312.612 241.441 316.448 248.639 319.883 256.07C323.528 263.949 326.729 272.015 330.088 280.022C333.876 289.039 337.854 297.957 342.542 306.554C347.21 315.122 352.599 323.218 358.701 330.83C366.082 340.038 372.327 349.941 377.238 360.69C381.418 369.902 384.464 379.454 386 389.466C387.198 397.264 387.438 405.066 386.464 412.914C384.995 424.833 380.971 435.768 373.753 445.45C367.071 454.424 358.516 461.067 348.416 465.761C340.991 469.21 333.241 471.459 325.043 472.025C322.14 472.234 319.227 472.239 316.325 472.011C315.92 471.981 315.524 471.987 315.131 471.979C314.72 472.124 314.335 471.894 313.934 471.874C313.602 471.861 313.284 471.653 312.938 471.805C310.502 471.376 308.056 470.944 305.62 470.515C305.367 470.252 305.012 470.342 304.71 470.248C304.425 470.197 304.155 470.15 303.875 470.1C303.644 470.06 303.393 470.016 303.167 469.976C296.96 468.673 291.13 466.299 285.336 463.83C275.522 459.632 266.043 454.715 256.319 450.319C248.443 446.767 240.428 443.596 232.136 441.134C226.391 439.425 220.525 438.314 214.625 437.482C209.906 436.813 205.122 436.716 200.358 436.764C190.949 436.878 181.591 437.762 172.231 438.63C162.328 439.566 152.427 440.486 142.476 440.367C138.43 440.308 134.394 440.161 130.403 439.416C129.585 439.262 128.748 439.241 127.921 439.075C126.876 438.83 125.801 438.833 124.803 438.408ZM367.885 71.6832C380.768 75.5902 389.64 84.0714 395.456 96.0056C399.442 104.189 401.318 112.91 401.837 121.97C402.269 129.771 401.591 137.492 399.984 145.142C397.03 159.196 391.352 172.039 382.987 183.697C377.192 191.776 370.317 198.771 362.131 204.407C354.842 209.414 346.954 213.051 338.216 214.643C332.078 215.76 325.969 215.77 319.894 214.323C309.374 211.833 301.098 206.006 294.819 197.271C289.469 189.817 286.409 181.406 284.849 172.416C283.76 166.13 283.503 159.802 283.909 153.449C284.181 149.094 284.743 144.785 285.634 140.534C287.728 130.497 291.268 120.99 296.222 112.026C301.485 102.482 308.057 93.987 316.253 86.7986C323.148 80.7521 330.804 75.9621 339.507 72.9616C345.903 70.7527 352.475 69.7532 359.249 70.1706C362.963 70.4346 364.429 70.7219 367.885 71.6832ZM55.7141 175.796C56.6308 171.804 58.0502 167.976 59.7923 164.271C63.1687 157.071 67.7285 150.77 73.9801 145.788C80.9665 140.23 88.9181 137.239 97.846 137.041C105.095 136.887 111.9 138.702 118.323 141.998C125.706 145.793 131.887 151.123 137.082 157.56C145.159 167.531 150.197 178.937 152.874 191.445C154.271 197.994 154.87 204.625 154.667 211.319C154.57 214.567 154.229 217.793 153.729 221.006C152.77 227.104 151.106 232.976 148.566 238.591C145.179 246.084 140.545 252.631 134.089 257.795C126.679 263.72 118.213 266.727 108.724 266.603C101.761 266.513 95.2372 264.596 89.0961 261.339C80.8416 256.943 74.1999 250.724 68.7066 243.219C63.345 235.916 59.485 227.851 56.8962 219.182C54.359 210.68 53.1097 201.969 53.3358 193.076C53.38 191.504 53.4634 189.939 53.5264 188.376C53.4876 187.648 53.6774 186.945 53.6329 186.221C53.6055 185.917 53.6984 185.649 53.7366 185.346C53.7477 184.967 53.9842 184.602 53.8234 184.193C54.1534 182.321 54.4826 180.454 54.8135 178.578C55.2525 178.127 55.1813 177.525 55.317 176.986C55.4186 176.582 55.3919 176.13 55.7141 175.796ZM157.827 102.454C159.836 91.3152 163.191 81.5413 168.614 72.5234C172.709 65.7037 177.739 59.694 184.117 54.882C190.989 49.6846 198.637 46.437 207.283 45.798C215.931 45.1493 223.958 47.1843 231.443 51.4953C238.035 55.2985 243.467 60.4207 248.025 66.4807C255.305 76.144 259.813 87.0552 262.318 98.8374C263.909 106.329 264.579 113.903 264.375 121.551C264.259 125.888 263.871 130.212 263.203 134.518C262.345 139.932 261.057 145.251 259.229 150.424C255.418 161.234 249.822 170.943 241.486 178.929C236.303 183.881 230.4 187.69 223.574 189.981C215.948 192.536 208.218 192.804 200.443 190.803C193.412 189 187.252 185.506 181.765 180.78C174.606 174.622 169.262 167.078 165.203 158.592C160.391 148.516 157.744 137.847 156.839 126.722C156.343 120.637 156.413 114.55 157.029 108.473C157.249 106.191 157.496 103.898 157.827 102.454ZM471.062 255.732C470.986 256.161 470.91 256.594 470.833 257.028C468.447 267.688 463.795 277.299 457.462 286.132C452.484 293.05 446.618 299.12 439.785 304.212C431.013 310.761 421.363 315.372 410.524 317.249C404.03 318.374 397.552 318.35 391.118 316.844C381.621 314.611 373.861 309.647 367.975 301.845C363.116 295.396 360.456 288.051 359.363 280.119C358.373 273.007 358.717 265.917 360.183 258.893C363.398 243.447 370.784 230.194 381.544 218.771C385.179 214.902 389.177 211.442 393.512 208.398C402.426 202.164 412.116 197.87 422.959 196.379C429.122 195.546 435.235 195.745 441.261 197.3C450.465 199.67 457.979 204.646 463.668 212.307C468.799 219.22 471.416 227.101 472.339 235.593C472.849 240.284 472.8 244.983 472.132 249.664C472.055 250.098 471.978 250.536 471.902 250.97C471.573 252.547 471.298 254.134 471.062 255.732Z" fill="#031545" fill-opacity="0.2"/>
</svg>
